# xmcd CD database file
#
# Track frame offsets:
#	150
#	16620
#	34655
#	48978
#	67490
#	82882
#	98781
#	114011
#	136084
#	146617
#	166876
#	186889
#	203988
#	220136
#	243505
#	262476
#	285798
#	303096
#
# Disc length: 4395 seconds
#
# Revision: 0
# Processed by: cddbd v1.5.2PL0 Copyright (c) Steve Scherf et al.
# Submitted via: CDex 1.51
#
DISCID=f5112912
DTITLE=Harald und Karin Sand - New Orleans Rhythm Boys Plus One
DYEAR=1900
DGENRE=Jazz
TTITLE0=Bugle Boy March
TTITLE1=Ace in The Hole
TTITLE2=Eh La Bas
TTITLE3=Wllie the weeper
TTITLE4=Royal garden blues
TTITLE5=Lousian-ia
TTITLE6=Way down yonder in new orleans
TTITLE7=Tin roof blues
TTITLE8=Blues my naughty sweet gives to me
TTITLE9=Over the waves
TTITLE10=Girl of my dreams
TTITLE11=Just a gigolo
TTITLE12=Dippermouth blues
TTITLE13=Careless Love
TTITLE14=Honeysucke rose
TTITLE15=Breeze
TTITLE16=Sister kate
TTITLE17=Boubon Street Blues
EXTD=
EXTT0=
EXTT1=
EXTT2=
EXTT3=
EXTT4=
EXTT5=
EXTT6=
EXTT7=
EXTT8=
EXTT9=
EXTT10=
EXTT11=
EXTT12=
EXTT13=
EXTT14=
EXTT15=
EXTT16=
EXTT17=
PLAYORDER=
